The.Last.Exorcism.2010.TS.XviD.Feel-Free

Genre:Horror | Thriller
Language: English
IMDB:http://www.imdb.com/title/tt1320244/
Source:Izgnanie.diavola.2010.D.CAMRip.PROPER/Prism/INK.Thanks

General
Complete name :The.Last.Exorcism.2010.TS.XviD.Feel-Free
Format : AVI
Format/Info : Audio Video Interleave
File size : 961 MiB
Duration : 1h 18mn
Overall bit rate : 1 709 Kbps
Video #0
ID : 0
Format : MPEG-4 Visual
Format profile : AdvancedSimple@L5
Format settings, BVOP : Yes
Format settings, QPel : No
Format settings, GMC : No warppoints
Format settings, Matrix : Default (H.263)
Muxing mode : Packed bitstream
Codec ID : XVID
Codec ID/Hint : XviD
Duration : 1h 18mn
Bit rate : 1 571 Kbps
Width : 720 pixels
Height : 384 pixels
Display aspect ratio : 1.875
Frame rate : 25.000 fps
Resolution : 24 bits
Colorimetry : 4:2:0
Scan type : Progressive
Bits/(Pixel*Frame) : 0.227
Stream size : 884 MiB (92%)
Writing library : XviD 1.2.1 (UTC 2008-12-04)
Audio #1
ID : 1
Format : MPEG Audio
Format version : Version 1
Format profile : Layer 3
Codec ID : 55
Codec ID/Hint : MP3
Duration : 1h 18mn
Bit rate mode : Constant
Bit rate : 128 Kbps
Channel(s) : 2 channels
Sampling rate : 44.1 KHz
Resolution : 16 bits
Stream size : 72.0 MiB (7%)
Alignment : Split accross interleaves
Interleave, duration : 40 ms (1.00 video frame)
Interleave, preload duration : 500 ms

Plot
A troubled evangelical minister agrees to let his last exorcism be filmed by a documentary crew